<?xml version="1.0" encoding="utf-8"?>
<!-- Generator: Adobe Illustrator 22.0.0, SVG Export Plug-In . SVG Version: 6.00 Build 0)  -->
<svg version="1.1" id="Layer_1" xmlns="http://www.w3.org/2000/svg" xmlns:xlink="http://www.w3.org/1999/xlink" x="0px" y="0px"
	 viewBox="0 0 32.2 60" style="enable-background:new 0 0 32.2 60;" xml:space="preserve">
<style type="text/css">
	.st0{fill:#38FF00;}
</style>
<circle class="st0" cx="-15.9" cy="-2.2" r="9.7"/>
<circle class="st0" cx="-15.9" cy="62.2" r="9.7"/>
<ellipse class="st0" cx="-15.9" cy="30.1" rx="9.7" ry="9.7"/>
<ellipse class="st0" cx="16.3" cy="-2.2" rx="9.7" ry="9.7"/>
<path class="st0" d="M0,4.2c-5.4,0-9.7,4.3-9.7,9.7l0,0l0,0c0,5.4,4.3,9.7,9.7,9.7s9.7-4.3,9.7-9.7l0,0l0,0C9.7,8.6,5.4,4.2,0,4.2z"
	/>
<circle class="st0" cx="0" cy="46.2" r="9.7"/>
<ellipse class="st0" cx="16.3" cy="62.1" rx="9.7" ry="9.7"/>
<ellipse class="st0" cx="16.3" cy="30.1" rx="9.7" ry="9.7"/>
<path class="st0" d="M32.2,4.2c-5.4,0-9.7,4.3-9.7,9.7V14l0,0c0,5.4,4.3,9.7,9.7,9.7H40V4.2H32.2z"/>
<path class="st0" d="M32.2,36.4L32.2,36.4c-5.4,0-9.7,4.4-9.7,9.7c0,5.4,4.3,9.7,9.7,9.7l0,0H40V36.4H32.2z"/>
</svg>
