<?xml version="1.0" encoding="utf-8"?>
<!-- Generator: Adobe Illustrator 22.0.0, SVG Export Plug-In . SVG Version: 6.00 Build 0)  -->
<svg version="1.1" id="Layer_1" xmlns="http://www.w3.org/2000/svg" xmlns:xlink="http://www.w3.org/1999/xlink" x="0px" y="0px"
	 viewBox="0 0 32.4 60" style="enable-background:new 0 0 32.4 60;" xml:space="preserve">
<style type="text/css">
	.st0{fill:#38FF00;}
	.st1{fill:none;}
</style>
<path class="st0" d="M48.5,62.2h16.1V46.1C55.7,46.1,48.5,53.3,48.5,62.2z"/>
<path class="st0" d="M48.5,30h16.1V13.9C55.7,13.9,48.5,21.1,48.5,30z"/>
<path class="st1" d="M64.6,46.1V30H48.5c0,8.9-7.2,16.1-16.1,16.1v16.1h16.1C48.5,53.3,55.7,46.1,64.6,46.1z"/>
<path class="st1" d="M64.6,13.9V-2.2H48.5c0,8.9-7.2,16.1-16.1,16.1V30h16.1C48.5,21.1,55.7,13.9,64.6,13.9z"/>
<path class="st0" d="M48.5,30H32.4v16.1C41.2,46.1,48.5,38.9,48.5,30z"/>
<path class="st0" d="M48.5-2.2H32.4v16.1C41.2,13.9,48.5,6.7,48.5-2.2z"/>
<path class="st1" d="M32.4,46.1V30H16.2c0,8.9-7.2,16.1-16.1,16.1v16.1h16.1C16.2,53.3,23.5,46.1,32.4,46.1z"/>
<path class="st1" d="M32.4,13.9V-2.2H16.2c0,8.9-7.2,16.1-16.1,16.1V30h16.1C16.2,21.1,23.5,13.9,32.4,13.9z"/>
<path class="st0" d="M16.2,62.2h16.1V46.1C23.5,46.1,16.2,53.3,16.2,62.2z"/>
<path class="st0" d="M16.2,30h16.1V13.9C23.5,13.9,16.2,21.1,16.2,30z"/>
<path class="st0" d="M0.2,30H-16v16.1H0.1c8.9,0,16.1-7.2,16.1-16.1C16.2,30,0.2,30,0.2,30z"/>
<path class="st0" d="M0.2-2.2h-21.6v16.1H0.1c8.9,0,16.1-7.2,16.1-16.1C16.2-2.2,0.2-2.2,0.2-2.2z"/>
</svg>
