<?xml version="1.0" encoding="utf-8"?>
<!-- Generator: Adobe Illustrator 22.0.0, SVG Export Plug-In . SVG Version: 6.00 Build 0)  -->
<svg version="1.1" id="Layer_1" xmlns="http://www.w3.org/2000/svg" xmlns:xlink="http://www.w3.org/1999/xlink" x="0px" y="0px"
	 viewBox="0 0 2880 1566" style="enable-background:new 0 0 2880 1566;" xml:space="preserve">
<style type="text/css">
	.st0{fill:#38FF00;}
</style>
<path class="st0" d="M1805.2,344.4c0,127.8-103.6,231.4-231.4,231.4V344.4H1805.2z"/>
<path class="st0" d="M421.5,420c0,127.8-103.6,231.4-231.4,231.4V420H421.5z"/>
<path class="st0" d="M421.5,1265.5c0,127.8-103.6,231.4-231.4,231.4v-231.4H421.5z"/>
<path class="st0" d="M2722-115.7c0,127.8-103.6,231.4-231.4,231.4v-231.4H2722z"/>
<path class="st0" d="M1805.2,807.3c0-127.8,103.6-231.4,231.4-231.4v231.4H1805.2z"/>
<path class="st0" d="M2722,347.2c0-127.8,103.6-231.4,231.4-231.4v231.4H2722z"/>
<path class="st0" d="M421.5,1728.4c0-127.8,103.6-231.4,231.4-231.4v231.4H421.5z"/>
<path class="st0" d="M421.5,162.4C421.5,34.6,525.1-69,652.9-69v231.4H421.5z"/>
<path class="st0" d="M2722,1449c0,127.8-103.6,231.4-231.4,231.4V1449H2722z"/>
</svg>
