<?xml version="1.0" encoding="utf-8"?>
<!-- Generator: Adobe Illustrator 22.0.0, SVG Export Plug-In . SVG Version: 6.00 Build 0)  -->
<svg version="1.1" id="Layer_1" xmlns="http://www.w3.org/2000/svg" xmlns:xlink="http://www.w3.org/1999/xlink" x="0px" y="0px"
	 viewBox="0 0 2880 1566" style="enable-background:new 0 0 2880 1566;" xml:space="preserve">
<style type="text/css">
	.st0{fill:#38FF00;}
	.st1{fill:none;}
</style>
<g>
	<polygon class="st0" points="2112,932.9 2300,744.9 2488,932.9 2685.3,735.5 2685.3,547.6 2488,744.9 2300,557 2112,744.9 
		1914.7,547.6 1914.7,735.5 	"/>
	<polygon class="st0" points="2112,547.7 2300,359.7 2488,547.7 2685.3,350.3 2685.3,162.4 2488,359.7 2300,171.8 2112,359.7 
		1914.7,162.4 1914.7,350.3 	"/>
</g>
<g>
	<polygon class="st0" points="2882.7,932.9 3070.7,744.9 3258.6,932.9 3456,735.5 3456,547.6 3258.6,744.9 3070.7,557 2882.7,744.9 
		2685.3,547.6 2685.3,735.5 	"/>
	<polygon class="st0" points="2882.7,547.7 3070.7,359.7 3258.6,547.7 3456,350.3 3456,162.4 3258.6,359.7 3070.7,171.8 
		2882.7,359.7 2685.3,162.4 2685.3,350.3 	"/>
</g>
<g>
	<polygon class="st0" points="-547.9,1469.9 -359.9,1282 -172,1469.9 25.4,1272.6 25.4,1084.6 -172,1282 -359.9,1094 -547.9,1282 
		-745.3,1084.6 -745.3,1272.6 	"/>
	<polygon class="st0" points="-547.9,1084.7 -359.9,896.8 -172,1084.7 25.4,887.4 25.4,699.4 -172,896.8 -359.9,708.8 -547.9,896.8 
		-745.3,699.4 -745.3,887.4 	"/>
</g>
<polygon class="st1" points="747.6,1133.1 449.8,1133.1 598.7,1282 "/>
<polygon class="st0" points="598.7,1282 449.8,1133.1 410.7,1133.1 410.7,1094 222.8,1282 25.4,1084.6 25.4,1272.6 222.8,1469.9 
	410.7,1282 598.7,1469.9 796.1,1272.6 796.1,1133.1 747.6,1133.1 "/>
<polygon class="st0" points="222.8,896.8 25.4,699.4 25.4,887.4 222.8,1084.7 410.7,896.8 410.7,708.8 "/>
<polygon class="st0" points="747.6,1133.1 796.1,1133.1 796.1,1084.6 "/>
<polygon class="st0" points="449.8,1133.1 410.7,1094 410.7,1133.1 "/>
</svg>
